<svg width="1811" height="457" viewBox="0 0 1811 457" fill="none" xmlns="http://www.w3.org/2000/svg">
<path fill-rule="evenodd" clip-rule="evenodd" d="M1732.38 413.273L1782.86 293.821H4.974L12.3415 392.429L43.4238 401.94V457H82.5623V401.94H100.103L137.128 411.45C103.76 416.956 108.788 457 148.555 457H1732.38L1752.04 454.497C1803.69 447.49 1794.09 413.273 1770.32 413.273H1732.38Z" fill="#0e2748"/>
<path d="M1811 227.249H440.637V0H324.536V227.249H272.5V36.5H251.312V8.5H244.25H237.188V36.5H216V227.249H0L4.974 293.821H1782.86L1811 227.249Z" fill="#dba005"/>
<path d="M112 414L115 433L112 452L109 433L112 414Z" fill="#F4F90C"/>
</svg>
