<svg width="1244" height="457" viewBox="0 0 1244 457" fill="none" xmlns="http://www.w3.org/2000/svg">
<path d="M109 427.758H115V412.446C115 412.446 114.895 410.573 116 410.15C116.699 409.882 117.234 410.031 118 410.15C121.847 410.745 117.146 414.803 117 417.806C116.767 422.595 118 427.758 118 427.758H151V439.242H118C118 439.242 116.767 444.405 117 449.194C117.146 452.197 121.847 456.255 118 456.85C117.234 456.969 116.699 457.118 116 456.85C114.895 456.427 115 454.554 115 454.554V439.242H109V427.758Z" fill="#D9D9D9"/>
<path fill-rule="evenodd" clip-rule="evenodd" d="M1165.38 413.273L1215.86 293.821H5.00003L12.3675 392.429L41.5 401.94V457H98V401.94H133.103L170.128 411.45C136.76 416.956 141.788 457 181.555 457H965.38L1185.04 454.497C1236.69 447.49 1227.09 413.273 1203.32 413.273H1165.38Z" fill="#0E2748"/>
<path d="M1244 227.249H473.637V0H357.536V227.249H305.5V36.5H284.313V8.5H277.25H270.188V36.5H249V227.249H0.0300293L5.00003 293.821H1215.86L1244 227.249Z" fill="#0E2748"/>
<path d="M1244 227.249H473.637V0H357.536V227.249H305.5V36.5H284.313V8.5H277.25H270.188V36.5H249V227.249H0.0300293L5.00003 293.821H1215.86L1244 227.249Z" fill="#DBA005"/>
</svg>
